Summertime (1955) The Criterion Collection

Director: David Lean

An American spinster’s dream of romance finally becomes a bittersweet reality when she meets a handsome but married Italian man while vacationing in Venice. Katharine Hepburn’s sensitive portrayal of the lonely heroine and Jack Hildyard’s glorious Technicolor photography make Summertime an endearing and visually enchanting film.

Government officials initially resisted director David Lean's request to allow his crew to film on location during the summer months, the height of the tourist season, especially when local gondolieri, fearful they would lose income, threatened to strike if he was given permission to do so. The problem was resolved when United Artists made a generous donation to the fund established to finance the restoration of St Mark's Basilica. Lean also was required to promise the cardinal no short dresses or bare arms would be seen in and around the city's holy sites.

In one scene, the character of Jane Hudson falls into a canal when she steps backward while photographing Di Rossi's shop in San Barnaba di Venezia. Leading lady Katharine Hepburn, concerned about her health, was disinclined to do the stunt herself, but Lean felt it would be obvious if he replaced her with a double. He filled the water with a disinfectant that caused it to foam, which added to Hepburn's reluctance, then required her to film the scene four times until he was satisfied with the results. That night, Hepburn's eyes began to itch and tear. She eventually was diagnosed with a rare form of conjunctivitis that plagued her for the remainder of her life.

Upon seeing the completed film, Production Code Administration head Geoffrey Shurlock notified United Artists executives the film would not be approved because of its depiction of adultery. Of particular concern was the scene in which Jane and Renato consummate their relationship. Eighteen feet of footage was deleted, and the PCA granted its approval. The National Catholic Legion of Decency, however, objected to a line of dialogue that finally was trimmed, and the organization bestowed the film with a B rating, designating the film morally objectionable in part.

In later years, Lean described the film as his favourite. He became so enamoured with Venice during filming he made it his second home.

Media Info:
General
Complete name                    : J:\Seeding\Summertime (1955)[DVDRip][big_dad_e]\Summertime (1955)[DVDRip][big_dad_e].avi
Format                           : AVI
Format/Info                      : Audio Video Interleave
File size                        : 964 MiB
Duration                         : 1h 40mn
Overall bit rate                 : 1 334 Kbps

Video
ID                               : 0
Format                           : MPEG-4 Visual
Format profile                   : Simple@L1
Format settings, BVOP            : No
Format settings, QPel            : No
Format settings, GMC             : No warppoints
Format settings, Matrix          : Default (H.263)
Codec ID                         : DIVX
Codec ID/Info                    : Project Mayo
Codec ID/Hint                    : DivX 4
Duration                         : 1h 40mn
Bit rate                         : 1 194 Kbps
Width                            : 720 pixels
Height                           : 480 pixels
Display aspect ratio             : 4:3
Frame rate                       : 23.976 fps
Standard                         : NTSC
Color space                      : YUV
Chroma subsampling               : 4:2:0
Bit depth                        : 8 bits
Scan type                        : Progressive
Bits/(Pixel*Frame)               : 0.144
Stream size                      : 862 MiB (89%)
Writing library                  : avc2.0.11.1110

Audio
ID                               : 1
Format                           : MPEG Audio
Format version                   : Version 1
Format profile                   : Layer 3
Mode                             : Joint stereo
Mode extension                   : MS Stereo
Codec ID                         : 55
Codec ID/Hint                    : MP3
Duration                         : 1h 40mn
Bit rate mode                    : Constant
Bit rate                         : 128 Kbps
Channel(s)                       : 2 channels
Sampling rate                    : 48.0 KHz
Stream size                      : 92.5 MiB (10%)
Alignment                        : Aligned on interleaves
Interleave, duration             : 24 ms (0.58 video frame)

File Scan:
Malwarebytes' Anti-Malware 1.46
www.malwarebytes.org

Database version: 5102

Windows 5.1.2600 Service Pack 3
Internet Explorer 8.0.6001.18702

11/12/2010 2:37:47 PM
mbam-log-2010-11-12 (14-37-47).txt

Scan type: Quick scan
Objects scanned: 6
Time elapsed: 10 second(s)

Memory Processes Infected: 0
Memory Modules Infected: 0
Registry Keys Infected: 0
Registry Values Infected: 0
Registry Data Items Infected: 0
Folders Infected: 0
Files Infected: 0

Memory Processes Infected:
(No malicious items detected)

Memory Modules Infected:
(No malicious items detected)

Registry Keys Infected:
(No malicious items detected)

Registry Values Infected:
(No malicious items detected)

Registry Data Items Infected:
(No malicious items detected)

Folders Infected:
(No malicious items detected)

Files Infected:
(No malicious items detected)

When using TPB please read these important notes:
  
01- Anti-malware apps may warn about keygens, patches, cracks, etc., because of 
    their capabilities, (generating codes, etc.). Sometimes they're added to 
    the virus/spyware database and will be detected as malware. If you don't trust
    the keygens, patches, cracks, etc., don't use them. 
    
02- Before running .exe-files, keygens, patches, cracks, etc., always check first 
    if they can be unpacked. Often some third party added a virus to the 
    original file, repacked it and uploaded it again.

03- Letting anti-malware apps send scan results to their companies can cause
    keygens, patches, cracks, etc., to be added to their virus-database.

04- Firewalls which are set to automatically determine connections will allow 
    apps & malware!. Avoid this by manually configuring your firewall.

05- Usually (new) torrents with many downloads and seeders in a brief period is
    suspicious! Torrents with the Skull & Crossbones icon are trusted.

06- Some people use multiple accounts and post fake comments 
    and/or files trying to spread confusion. They seldom seriously
    comment or have any torrents, or a just a few to look passable.

07- Clicking on unknown links can cause malware to be installed on your machine.
  
08- In general often there are more fake and negative comments than reliable and
    positive comments.

09- In some countries uploading/downloading copyright protected material is 
    forbidden, but showing some appreciation to reliable up-loaders is not.

10- Posting fake and negative comments or fake/infected uploads on TPB can result
    in getting banned from TPB!

Requests?  Find me on SuprBay.
 

For reporting bad or suspicious torrents:  
http://forum.suprbay.org/forumdisplay.php?fid=29

For more of my torrents: 
https://thepiratebay.org/user/big_dad_e/  (Secured)

All torrents scanned with:
Norton Anti-virus
Malwarebytes' Anti-malware
 
http://www.pirate-party.us/

ALWAYS SEED & THANKS SEEDERS!